
<svg xmlns="http://www.w3.org/2000/svg" xmlns:xlink="http://www.w3.org/1999/xlink">

<symbol id="order-received" viewBox="0 0 576 512">
    <path d="M184.1 38.2c9.9 8.9 10.7 24 1.8 33.9l-72 80c-4.4 4.9-10.6 7.8-17.2 7.9s-12.9-2.4-17.6-7L39 113c-9.4-9.4-9.4-24.6 0-33.9s24.6-9.4 33.9 0l22.1 22.1 55.1-61.2c8.9-9.9 24-10.7 33.9-1.8zm0 160c9.9 8.9 10.7 24 1.8 33.9l-72 80c-4.4 4.9-10.6 7.8-17.2 7.9s-12.9-2.4-17.6-7L39 273c-9.4-9.4-9.4-24.6 0-33.9s24.6-9.4 33.9 0l22.1 22.1 55.1-61.2c8.9-9.9 24-10.7 33.9-1.8zM256 96c0-17.7 14.3-32 32-32H512c17.7 0 32 14.3 32 32s-14.3 32-32 32H288c-17.7 0-32-14.3-32-32zm0 160c0-17.7 14.3-32 32-32H512c17.7 0 32 14.3 32 32s-14.3 32-32 32H288c-17.7 0-32-14.3-32-32zM192 416c0-17.7 14.3-32 32-32H512c17.7 0 32 14.3 32 32s-14.3 32-32 32H224c-17.7 0-32-14.3-32-32zM80 464c-26.5 0-48-21.5-48-48s21.5-48 48-48s48 21.5 48 48s-21.5 48-48 48z"/>
</symbol>

<symbol id="arrow-trend-up" viewBox="0 0 576 512">
	<path d="M384 160c-17.7 0-32-14.3-32-32s14.3-32 32-32H544c17.7 0 32 14.3 32 32V288c0 17.7-14.3 32-32 32s-32-14.3-32-32V205.3L342.6 374.6c-12.5 12.5-32.8 12.5-45.3 0L192 269.3 54.6 406.6c-12.5 12.5-32.8 12.5-45.3 0s-12.5-32.8 0-45.3l160-160c12.5-12.5 32.8-12.5 45.3 0L320 306.7 466.7 160H384z"/>
</symbol>

<symbol id="arrow-trend-down" viewBox="0 0 576 512">
	<path d="M384 352c-17.7 0-32 14.3-32 32s14.3 32 32 32H544c17.7 0 32-14.3 32-32V224c0-17.7-14.3-32-32-32s-32 14.3-32 32v82.7L342.6 137.4c-12.5-12.5-32.8-12.5-45.3 0L192 242.7 54.6 105.4c-12.5-12.5-32.8-12.5-45.3 0s-12.5 32.8 0 45.3l160 160c12.5 12.5 32.8 12.5 45.3 0L320 205.3 466.7 352H384z"/>
</symbol>

<symbol id="dashboard" viewBox="0 0 448 512">
	<path d="M160 80c0-26.5 21.5-48 48-48h32c26.5 0 48 21.5 48 48V432c0 26.5-21.5 48-48 48H208c-26.5 0-48-21.5-48-48V80zM0 272c0-26.5 21.5-48 48-48H80c26.5 0 48 21.5 48 48V432c0 26.5-21.5 48-48 48H48c-26.5 0-48-21.5-48-48V272zM368 96h32c26.5 0 48 21.5 48 48V432c0 26.5-21.5 48-48 48H368c-26.5 0-48-21.5-48-48V144c0-26.5 21.5-48 48-48z"/>
</symbol>

<symbol id="user" viewBox="0 0 448 512">
	<path d="M224 256c70.7 0 128-57.3 128-128S294.7 0 224 0S96 57.3 96 128s57.3 128 128 128zm-45.7 48C79.8 304 0 383.8 0 482.3C0 498.7 13.3 512 29.7 512H418.3c16.4 0 29.7-13.3 29.7-29.7C448 383.8 368.2 304 269.7 304H178.3z"/>
</symbol>

<symbol id="search" width="24" height="24" viewBox="0 0 24 24" fill="none" >
		<path d="M8.33333 7.33333H7.80667L7.62 7.15333C8.27333 6.39333 8.66667 5.40667 8.66667 4.33333C8.66667 1.94 6.72667 0 4.33333 0C1.94 0 0 1.94 0 4.33333C0 6.72667 1.94 8.66667 4.33333 8.66667C5.40667 8.66667 6.39333 8.27333 7.15333 7.62L7.33333 7.80667V8.33333L10.6667 11.66L11.66 10.6667L8.33333 7.33333ZM4.33333 7.33333C2.67333 7.33333 1.33333 5.99333 1.33333 4.33333C1.33333 2.67333 2.67333 1.33333 4.33333 1.33333C5.99333 1.33333 7.33333 2.67333 7.33333 4.33333C7.33333 5.99333 5.99333 7.33333 4.33333 7.33333Z " fill="#3C3835" />
</symbol>

<symbol id="arrow-right" viewBox="0 0 448 512">
	<path d="M438.6 278.6c12.5-12.5 12.5-32.8 0-45.3l-160-160c-12.5-12.5-32.8-12.5-45.3 0s-12.5 32.8 0 45.3L338.8 224 32 224c-17.7 0-32 14.3-32 32s14.3 32 32 32l306.7 0L233.4 393.4c-12.5 12.5-12.5 32.8 0 45.3s32.8 12.5 45.3 0l160-160z"/>
</symbol>

<symbol id='eye-hide' width="21" height="21" viewBox="0 0 36 36" fill="#666666" >
		<path d="M18.37 11.17C17.5607 11.1709 16.7581 11.3166 16 11.6L24.8 20.4C25.0872 19.6326 25.2329 18.8194 25.23 18C25.2221 16.1858 24.4958 14.4486 23.2102 13.1686C21.9245 11.8886 20.1842 11.17 18.37 11.17V11.17Z" fill="#666666"/>
		<path d="M34.29 17.53C30.92 11.3 25.01 7.53 18.47 7.53C16.6893 7.53418 14.9206 7.82108 13.23 8.38L14.84 10C16.0258 9.69353 17.2452 9.53565 18.47 9.53C24.1 9.53 29.22 12.67 32.27 17.96C31.1511 19.9226 29.6679 21.6536 27.9 23.06L29.32 24.48C31.3661 22.8293 33.0653 20.7902 34.32 18.48L34.58 18L34.29 17.53Z" fill="#666666"/>
		<path d="M4.86988 5.78L9.32988 10.24C6.5108 12.0551 4.20678 14.5658 2.63988 17.53L2.37988 18L2.63988 18.48C6.00988 24.71 11.9199 28.48 18.4599 28.48C21.0125 28.4795 23.532 27.9017 25.8299 26.79L30.8299 31.79L32.5799 30.29L6.57988 4.29L4.86988 5.78ZM13.1699 14.08C12.2343 15.3994 11.7958 17.0073 11.932 18.619C12.0682 20.2307 12.7703 21.7422 13.914 22.8859C15.0577 24.0296 16.5692 24.7317 18.1809 24.8679C19.7926 25.0041 21.4005 24.5656 22.7199 23.63L24.3199 25.23C22.4677 26.0217 20.4742 26.4299 18.4599 26.43C12.8299 26.43 7.70988 23.29 4.65988 18C6.12359 15.4082 8.23161 13.2382 10.7799 11.7L13.1699 14.08Z" fill="#666666"/>
	</symbol>

	<symbol id='eye-show' width="21" height="21" viewBox="0 0 36 36" fill="none" >
		<path d="M33.62 17.53C30.25 11.3 24.34 7.53 17.8 7.53C11.26 7.53 5.33997 11.3 1.99997 17.53L1.71997 18L1.97997 18.48C5.34997 24.71 11.26 28.48 17.8 28.48C24.34 28.48 30.26 24.76 33.62 18.48L33.88 18L33.62 17.53ZM17.8 26.43C12.17 26.43 6.99997 23.29 3.99997 18C6.99997 12.71 12.17 9.57 17.8 9.57C23.43 9.57 28.54 12.72 31.59 18C28.54 23.29 23.42 26.43 17.8 26.43V26.43Z" fill="black"/>
		<path d="M18.09 24.89C21.8787 24.89 24.95 21.8187 24.95 18.03C24.95 14.2413 21.8787 11.17 18.09 11.17C14.3013 11.17 11.23 14.2413 11.23 18.03C11.23 21.8187 14.3013 24.89 18.09 24.89Z" fill="black"/>
	</symbol>

	<symbol id="logout" viewBox="0 0 576 512">
		<path d="M534.6 278.6c12.5-12.5 12.5-32.8 0-45.3l-128-128c-12.5-12.5-32.8-12.5-45.3 0s-12.5 32.8 0 45.3L434.7 224 224 224c-17.7 0-32 14.3-32 32s14.3 32 32 32l210.7 0-73.4 73.4c-12.5 12.5-12.5 32.8 0 45.3s32.8 12.5 45.3 0l128-128zM192 96c17.7 0 32-14.3 32-32s-14.3-32-32-32l-64 0c-53 0-96 43-96 96l0 256c0 53 43 96 96 96l64 0c17.7 0 32-14.3 32-32s-14.3-32-32-32l-64 0c-17.7 0-32-14.3-32-32l0-256c0-17.7 14.3-32 32-32l64 0z"/>
	</symbol>

	<symbol id="sort" viewBox="0 0 320 512">
		<path d="M137.4 41.4c12.5-12.5 32.8-12.5 45.3 0l128 128c9.2 9.2 11.9 22.9 6.9 34.9s-16.6 19.8-29.6 19.8H32c-12.9 0-24.6-7.8-29.6-19.8s-2.2-25.7 6.9-34.9l128-128zm0 429.3l-128-128c-9.2-9.2-11.9-22.9-6.9-34.9s16.6-19.8 29.6-19.8H288c12.9 0 24.6 7.8 29.6 19.8s2.2 25.7-6.9 34.9l-128 128c-12.5 12.5-32.8 12.5-45.3 0z"/>
	</symbol>

	<symbol id="sort-up" viewBox="0 0 320 512">
		<path d="M182.6 41.4c-12.5-12.5-32.8-12.5-45.3 0l-128 128c-9.2 9.2-11.9 22.9-6.9 34.9s16.6 19.8 29.6 19.8H288c12.9 0 24.6-7.8 29.6-19.8s2.2-25.7-6.9-34.9l-128-128z" fill="green"/>
		<path d="M182.6 470.6c-12.5 12.5-32.8 12.5-45.3 0l-128-128c-9.2-9.2-11.9-22.9-6.9-34.9s16.6-19.8 29.6-19.8H288c12.9 0 24.6 7.8 29.6 19.8s2.2 25.7-6.9 34.9l-128 128z" fill="lightgray"/>
	</symbol>

	<symbol id="sort-down" viewBox="0 0 320 512">
		<path d="M182.6 41.4c-12.5-12.5-32.8-12.5-45.3 0l-128 128c-9.2 9.2-11.9 22.9-6.9 34.9s16.6 19.8 29.6 19.8H288c12.9 0 24.6-7.8 29.6-19.8s2.2-25.7-6.9-34.9l-128-128z" fill="lightgray"/>
		<path d="M182.6 470.6c-12.5 12.5-32.8 12.5-45.3 0l-128-128c-9.2-9.2-11.9-22.9-6.9-34.9s16.6-19.8 29.6-19.8H288c12.9 0 24.6 7.8 29.6 19.8s2.2 25.7-6.9 34.9l-128 128z" fill="green"/>
	</symbol>

	<symbol id="laptop" viewBox="0 0 640 512">
		<path d="M128 32C92.7 32 64 60.7 64 96V352h64V96H512V352h64V96c0-35.3-28.7-64-64-64H128zM19.2 384C8.6 384 0 392.6 0 403.2C0 445.6 34.4 480 76.8 480H563.2c42.4 0 76.8-34.4 76.8-76.8c0-10.6-8.6-19.2-19.2-19.2H19.2z"/>
	</symbol>

	<symbol id="hamburger" viewBox="0 0 448 512">
		<path d="M0 96C0 78.3 14.3 64 32 64H416c17.7 0 32 14.3 32 32s-14.3 32-32 32H32C14.3 128 0 113.7 0 96zM0 256c0-17.7 14.3-32 32-32H416c17.7 0 32 14.3 32 32s-14.3 32-32 32H32c-17.7 0-32-14.3-32-32zM448 416c0 17.7-14.3 32-32 32H32c-17.7 0-32-14.3-32-32s14.3-32 32-32H416c17.7 0 32 14.3 32 32z"/>
	</symbol>

</svg>